<svg width="19" height="19" viewBox="0 0 19 19" fill="none" xmlns="http://www.w3.org/2000/svg">
<g clip-path="url(#clip0_7_30)">
<path d="M18.155 9.375C18.155 14.2789 14.2004 18.25 9.32749 18.25C4.45459 18.25 0.5 14.2789 0.5 9.375C0.5 4.47108 4.45459 0.5 9.32749 0.5C14.2004 0.5 18.155 4.47108 18.155 9.375Z" fill="white" stroke="#536471"/>
<path d="M9.25432 4.16669L9.17979 4.42113V11.8038L9.25432 11.8786L12.6639 9.8529L9.25432 4.16669Z" fill="#343434"/>
<path d="M9.25434 4.16669L5.84471 9.8529L9.25434 11.8786V8.29521V4.16669Z" fill="#8C8C8C"/>
<path d="M9.25433 12.5274L9.21233 12.5789V15.2087L9.25433 15.3319L12.666 10.5027L9.25433 12.5274Z" fill="#3C3C3B"/>
<path d="M9.25433 15.3319V12.5274L5.84471 10.5027L9.25433 15.3319Z" fill="#8C8C8C"/>
<path d="M9.25435 11.8786L12.6639 9.85292L9.25435 8.29523V11.8786Z" fill="#141414"/>
<path d="M5.84471 9.85292L9.25433 11.8786V8.29523L5.84471 9.85292Z" fill="#393939"/>
<g style="mix-blend-mode:color">
<path d="M9.25432 4.16669L9.17979 4.42113V11.8038L9.25432 11.8786L12.6639 9.8529L9.25432 4.16669Z" fill="#536471"/>
<path d="M9.25434 4.16669L5.84471 9.8529L9.25434 11.8786V8.29521V4.16669Z" fill="#536471"/>
<path d="M9.25433 12.5274L9.21233 12.5789V15.2087L9.25433 15.3319L12.666 10.5027L9.25433 12.5274Z" fill="#536471"/>
<path d="M9.25433 15.3319V12.5274L5.84471 10.5027L9.25433 15.3319Z" fill="#536471"/>
<path d="M9.25435 11.8786L12.6639 9.85292L9.25435 8.29523V11.8786Z" fill="#536471"/>
<path d="M5.84471 9.85292L9.25433 11.8786V8.29523L5.84471 9.85292Z" fill="#536471"/>
</g>
</g>
<defs>
<clipPath id="clip0_7_30">
<rect width="18.75" height="18.75" fill="white"/>
</clipPath>
</defs>
</svg>
