<svg width="1012" height="895" viewBox="0 0 1012 895" fill="none" xmlns="http://www.w3.org/2000/svg">
<path d="M192.547 489.124H343.794C272.55 539.367 237.383 577.434 188.654 577.434C137.655 573.268 152.319 530.331 164.971 506.043C167.525 500.973 171.457 496.705 176.327 493.716C181.198 490.728 186.814 489.138 192.547 489.124Z" fill="#2A2A2A"/>
<path d="M206.759 894.849H43.7682C43.3936 894.846 43.025 894.756 42.6919 894.587C42.3587 894.418 42.0703 894.174 41.8496 893.875C41.6289 893.576 41.4821 893.23 41.4209 892.865C41.3597 892.5 41.3859 892.126 41.4973 891.773L57.5238 843.452C57.9631 842.124 58.6869 840.904 59.6458 839.876C60.6048 838.848 61.7765 838.036 63.0814 837.495C64.3863 836.954 65.7939 836.696 67.2084 836.74C68.623 836.784 70.0114 837.128 71.2794 837.749C115.126 859.009 160.706 876.588 207.538 890.299C208.148 890.401 208.693 890.738 209.052 891.237C209.411 891.736 209.555 892.355 209.452 892.959C209.348 893.562 209.007 894.1 208.502 894.455C207.997 894.809 207.37 894.951 206.759 894.849Z" fill="#2A2A2A"/>
<path d="M819.205 489.124H668.023C739.397 539.367 774.37 577.114 823.098 577.114C874.098 572.948 859.434 530.011 846.781 505.722C844.189 500.707 840.239 496.501 835.37 493.571C830.502 490.64 824.906 489.101 819.205 489.124Z" fill="#2A2A2A"/>
<path d="M805.06 894.849H968.051C968.43 894.86 968.807 894.78 969.148 894.615C969.489 894.45 969.784 894.205 970.007 893.902C970.231 893.6 970.377 893.247 970.432 892.876C970.486 892.505 970.449 892.127 970.322 891.773L954.295 843.453C953.849 842.122 953.118 840.901 952.153 839.873C951.187 838.845 950.01 838.033 948.7 837.492C947.39 836.952 945.978 836.695 944.559 836.739C943.141 836.784 941.748 837.128 940.475 837.749C896.626 859.004 851.046 876.583 804.217 890.299C803.606 890.41 803.064 890.755 802.712 891.26C802.359 891.765 802.223 892.387 802.335 892.991C802.447 893.594 802.797 894.129 803.308 894.477C803.819 894.826 804.449 894.96 805.06 894.849Z" fill="#2A2A2A"/>
<path d="M1011.14 495.853C788.71 802.822 706.177 517.129 572.125 517.129C519.633 517.129 505.812 558.977 505.812 577.37C505.812 558.977 492.057 517.129 439.565 517.129C305.448 517.129 222.979 802.822 0.489281 495.853C-3.79312 832.494 320.307 912.409 505.747 701.503C691.318 912.088 1015.42 832.494 1011.14 495.853Z" fill="#2A2A2A"/>
<path d="M984.986 369.669C960.07 382.871 932.494 395.944 908.941 405.941C901.21 409.207 892.888 410.885 884.479 410.876H127.208C118.801 410.88 110.479 409.201 102.747 405.941C79.1936 395.944 51.6176 382.871 26.4423 369.669C24.1909 368.473 22.4335 366.537 21.4738 364.197C20.5141 361.856 20.4125 359.258 21.1866 356.852C24.1713 347.047 29.7514 329.744 37.7971 310.39C38.3752 309.008 39.2368 307.759 40.3275 306.722C41.4182 305.686 42.7144 304.883 44.1346 304.365C45.5548 303.848 47.0681 303.626 48.5793 303.714C50.0905 303.803 51.5668 304.199 52.9153 304.879C77.1173 316.991 96.453 325.642 114.491 333.14V187.666C114.542 185.082 115.532 182.603 117.281 180.681C164.966 124.66 224.411 79.5451 291.498 48.462C358.585 17.3789 431.711 1.07005 505.811 0.664795C579.921 1.07364 653.055 17.3838 720.152 48.4663C787.249 79.5489 846.706 124.661 894.407 180.681C896.065 182.642 896.983 185.111 897.002 187.666V333.332C915.04 325.834 934.376 317.183 958.643 305.071C959.986 304.392 961.458 303.996 962.965 303.909C964.471 303.821 965.98 304.043 967.395 304.561C968.81 305.079 970.101 305.882 971.185 306.918C972.27 307.955 973.125 309.202 973.696 310.582C981.742 329.808 987.322 347.239 990.306 357.044C991.037 359.431 990.907 361.995 989.936 364.298C988.966 366.601 987.216 368.499 984.986 369.669Z" fill="#2A2A2A"/>
</svg>
