<svg width="512" height="512" viewBox="0 0 512 512" fill="none" xmlns="http://www.w3.org/2000/svg">
<g clip-path="url(#clip0_1008_3609)">
<rect width="512" height="512" fill="#D9304F"/>
<path d="M433.985 128.022C355.218 237.617 326.021 135.597 278.477 135.597C259.891 135.597 255.011 150.553 255.011 157.108C255.011 150.596 250.13 135.597 231.544 135.597C183.979 135.597 154.803 237.617 76.0146 128C74.5112 248.253 189.317 276.689 255.011 201.476C320.704 276.689 435.51 248.275 433.985 128.022Z" fill="white"/>
<path d="M154.932 341.86V365H79.2723V274H153.242V297.14H109.432V307.8H147.912V329.9H109.432V341.86H154.932ZM223.698 365L207.968 340.69L192.628 365H157.658L190.548 319.11L158.828 274H193.278L208.748 296.88L223.828 274H256.848L225.258 317.94L258.798 365H223.698ZM343.626 274V365H312.946V297.14H297.346V274H343.626ZM423.702 317.03C427.602 319.457 430.592 322.447 432.672 326C434.839 329.467 435.922 333.453 435.922 337.96C435.922 343.767 434.189 348.88 430.722 353.3C427.342 357.72 422.532 361.143 416.292 363.57C410.139 365.91 403.076 367.08 395.102 367.08C387.129 367.08 380.022 365.91 373.782 363.57C367.629 361.143 362.819 357.72 359.352 353.3C355.972 348.88 354.282 343.767 354.282 337.96C354.282 333.453 355.322 329.467 357.402 326C359.569 322.447 362.602 319.457 366.502 317.03C360.522 312.263 357.532 306.283 357.532 299.09C357.532 293.63 359.092 288.863 362.212 284.79C365.419 280.717 369.839 277.553 375.472 275.3C381.192 273.047 387.736 271.92 395.102 271.92C402.469 271.92 408.969 273.047 414.602 275.3C420.322 277.553 424.742 280.717 427.862 284.79C431.069 288.863 432.672 293.63 432.672 299.09C432.672 306.283 429.682 312.263 423.702 317.03ZM395.102 292.59C392.936 292.59 391.159 293.283 389.772 294.67C388.472 296.057 387.822 297.963 387.822 300.39C387.822 302.817 388.472 304.723 389.772 306.11C391.159 307.497 392.936 308.19 395.102 308.19C397.269 308.19 399.002 307.497 400.302 306.11C401.689 304.723 402.382 302.817 402.382 300.39C402.382 297.963 401.689 296.057 400.302 294.67C399.002 293.283 397.269 292.59 395.102 292.59ZM395.102 346.41C398.049 346.41 400.432 345.543 402.252 343.81C404.159 342.077 405.112 339.78 405.112 336.92C405.112 334.06 404.159 331.763 402.252 330.03C400.432 328.297 398.049 327.43 395.102 327.43C392.156 327.43 389.729 328.297 387.822 330.03C386.002 331.763 385.092 334.06 385.092 336.92C385.092 339.78 386.002 342.077 387.822 343.81C389.729 345.543 392.156 346.41 395.102 346.41Z" fill="white"/>
</g>
<defs>
<clipPath id="clip0_1008_3609">
<rect width="512" height="512" rx="256" fill="white"/>
</clipPath>
</defs>
</svg>
