<svg width="19" height="19" viewBox="0 0 19 19" fill="none" xmlns="http://www.w3.org/2000/svg">
<g clip-path="url(#clip0_7_28)">
<path d="M18.155 9.375C18.155 14.2789 14.2004 18.25 9.32749 18.25C4.45459 18.25 0.5 14.2789 0.5 9.375C0.5 4.47108 4.45459 0.5 9.32749 0.5C14.2004 0.5 18.155 4.47108 18.155 9.375Z" fill="white" stroke="#536471"/>
<path d="M11.8861 5.63424L10.1473 8.21757C10.027 8.3935 10.2583 8.60646 10.4248 8.45831L12.1358 6.96757C12.1821 6.93054 12.2468 6.95831 12.2468 7.02313V11.6805C12.2468 11.7453 12.1636 11.7731 12.1266 11.7268L6.94714 5.52313C6.78066 5.31942 6.54018 5.20831 6.27196 5.20831H6.08698C5.60603 5.20831 5.20833 5.60646 5.20833 6.0972V12.6528C5.20833 13.1435 5.60603 13.5416 6.09623 13.5416C6.40145 13.5416 6.68817 13.3842 6.85465 13.1157L8.59346 10.5324C8.71369 10.3565 8.48247 10.1435 8.31599 10.2916L6.60492 11.7731C6.55868 11.8102 6.49394 11.7824 6.49394 11.7176V7.06942C6.49394 7.00461 6.57718 6.97683 6.61417 7.02313L11.7936 13.2268C11.9601 13.4305 12.2098 13.5416 12.4688 13.5416H12.6538C13.144 13.5416 13.5417 13.1435 13.5417 12.6528V6.0972C13.5417 5.60646 13.144 5.20831 12.6538 5.20831C12.3393 5.20831 12.0526 5.36572 11.8861 5.63424Z" fill="#536471"/>
</g>
<defs>
<clipPath id="clip0_7_28">
<rect width="18.75" height="18.75" fill="white"/>
</clipPath>
</defs>
</svg>
