<!-- Generated by IcoMoon.io -->
<svg version="1.1" xmlns="http://www.w3.org/2000/svg" width="1024" height="1024" viewBox="0 0 1024 1024">
<title></title>
<g id="icomoon-ignore">
</g>
<path fill="#d10019" d="M572.331 512l247.168-247.168c16.64-16.64 16.64-43.648 0-60.331s-43.648-16.64-60.331 0l-247.168 247.168-247.168-247.168c-16.64-16.64-43.648-16.64-60.331 0s-16.64 43.648 0 60.331l247.168 247.168-247.168 247.168c-16.64 16.64-16.64 43.648 0 60.331 8.32 8.32 19.2 12.501 30.165 12.501s21.845-4.181 30.165-12.501l247.168-247.168 247.168 247.168c8.32 8.32 19.2 12.501 30.165 12.501s21.845-4.181 30.165-12.501c16.64-16.64 16.64-43.648 0-60.331l-247.168-247.168z"></path>
</svg>
