<svg width="512" height="512" viewBox="0 0 512 512" fill="none" xmlns="http://www.w3.org/2000/svg">
<path d="M254.85 509.304C395.6 509.304 509.7 395.811 509.7 255.81C509.7 115.809 395.6 2.31519 254.85 2.31519C114.1 2.31519 0 115.809 0 255.81C0 395.811 114.1 509.304 254.85 509.304Z" fill="#D9304F"/>
<path d="M479.746 259.704C380.769 397.209 344.08 269.209 284.338 269.209C260.983 269.209 254.85 287.973 254.85 296.198C254.85 288.028 248.717 269.209 225.362 269.209C165.592 269.209 128.931 397.209 29.9256 259.677C28.0364 410.554 172.3 446.23 254.85 351.864C337.399 446.23 481.663 410.581 479.746 259.704Z" fill="white"/>
<path d="M468.193 203.112C457.104 209.049 444.838 214.904 434.352 219.452C430.889 220.92 427.163 221.67 423.4 221.658H86.3285C82.5648 221.673 78.8378 220.923 75.3766 219.452C64.8902 214.959 52.6241 209.103 41.5079 203.112C40.5216 202.587 39.7483 201.739 39.3191 200.711C38.8899 199.684 38.8313 198.54 39.1533 197.474C40.4675 193.09 42.9864 185.328 46.5458 176.668C46.802 176.046 47.1846 175.484 47.6694 175.017C48.1543 174.549 48.731 174.187 49.3633 173.952C49.9957 173.716 50.6702 173.614 51.3444 173.65C52.0186 173.686 52.6779 173.86 53.2812 174.162C64.0688 179.609 72.666 183.476 80.6609 186.853V121.491C80.6622 120.345 81.0693 119.236 81.8108 118.359C102.919 93.1154 129.354 72.8021 159.24 58.8611C189.126 44.9201 221.731 37.6931 254.741 37.6931C287.75 37.6931 320.355 44.9201 350.242 58.8611C380.128 72.8021 406.563 93.1154 427.671 118.359C428.412 119.236 428.82 120.345 428.821 121.491V186.853C436.87 183.476 445.468 179.609 456.201 174.162C456.801 173.856 457.459 173.679 458.132 173.641C458.806 173.603 459.48 173.705 460.111 173.941C460.742 174.177 461.317 174.541 461.799 175.011C462.281 175.48 462.659 176.044 462.909 176.668C466.495 185.328 468.987 193.008 470.301 197.474C470.639 198.513 470.615 199.634 470.232 200.658C469.85 201.681 469.131 202.545 468.193 203.112Z" fill="white"/>
</svg>
